<svg width="24" height="24" viewBox="0 0 24 24" fill="none" xmlns="http://www.w3.org/2000/svg">
<g clip-path="url(#clip0_516_50)">
<path d="M12 24C5.36082 24 0 18.5979 0 12C0 5.40207 5.36082 0 12 0C18.5979 0 24 5.40207 24 12C24 18.5979 18.6392 24 12 24Z" fill="#8F59A4"/>
<path d="M9.4436 15.2992H7.05185L8.24774 8.41261L9.03125 8.16517L9.07247 7.95898H4.61885L4.57763 8.16517L5.27867 8.41261L4.04156 15.5054L3.25805 15.7528L3.2168 15.959H10.8457L10.9281 15.4229C11.0931 14.5157 11.3817 13.4848 11.3817 13.4848L11.2168 13.4023C11.258 13.4023 10.3508 13.9796 9.4436 15.2992Z" fill="white"/>
<path d="M17.4846 8.00049H13.031L12.9897 8.20668L13.6908 8.45409L12.4536 15.5469L11.6702 15.7943L11.6289 16.0005H16.2062L16.2475 15.7943L15.4227 15.5469L16.6598 8.53656H16.9485C17.5258 8.53656 17.8145 9.11388 17.8145 10.0623C17.8145 11.4232 17.3196 12.8252 16.4124 12.8252H16.2887L16.2475 13.0726C16.4949 13.1964 16.9073 13.2788 17.4434 13.2788C19.0103 13.2788 20.7836 12.4541 20.7836 10.4335C20.7836 8.784 19.5464 8.00049 17.4846 8.00049Z" fill="white"/>
</g>
<defs>
<clipPath id="clip0_516_50">
<rect width="24" height="24" fill="white"/>
</clipPath>
</defs>
</svg>
