<svg width="24" height="24" viewBox="0 0 24 24" fill="none" xmlns="http://www.w3.org/2000/svg">
<g clip-path="url(#clip0_516_44)">
<circle cx="12" cy="12" r="12" fill="#2DB4E7"/>
<path fill-rule="evenodd" clip-rule="evenodd" d="M11.0751 10.2534C11.0751 9.71648 10.9082 9.19204 10.6035 8.74669C10.3239 8.35544 9.93977 8.0516 9.49327 7.87262C9.03005 7.68532 8.53341 7.59375 8.03249 7.59375H4.17188V7.70613H5.0066V16.2428H4.17188V16.3552H8.45393V16.2428H7.26868V12.4677C7.44394 12.5551 7.62756 12.6175 7.81973 12.6592C8.02414 12.6966 8.22874 12.7133 8.43743 12.7091C8.77531 12.7091 9.1134 12.6508 9.4307 12.5426C9.73945 12.4386 10.0274 12.2721 10.2779 12.0598C10.5283 11.8475 10.7286 11.5812 10.8664 11.2815C11.0125 10.961 11.0834 10.6072 11.0792 10.2576L11.0751 10.2534ZM8.95485 10.1868C8.95485 10.5822 8.92978 10.9776 8.87965 11.3689C8.85479 11.6644 8.7588 11.9516 8.60433 12.2055C8.53341 12.322 8.42907 12.4136 8.30802 12.476C8.18697 12.5385 8.0492 12.5676 7.91144 12.5593C7.86192 12.5551 7.81219 12.548 7.76308 12.5382C7.71295 12.5283 7.66343 12.5157 7.61513 12.501C7.49 12.4719 7.37302 12.4178 7.26461 12.3512V7.70613H7.64855C8.16598 7.70613 8.50834 7.93505 8.66689 8.38873C8.85887 8.96728 8.95485 9.5708 8.95078 10.1785L8.95485 10.1868Z" fill="white"/>
<path d="M15.2112 7.7311V7.59375H11.0751V7.72694H11.9807V16.2179H11.0751V16.3511H15.0735V16.2387H14.3097V7.7311H15.2112Z" fill="white"/>
<path d="M15.9541 10.4032L18.8422 16.222V16.2262H19.7812V16.3594H15.3655V16.2262H16.1042L14.3806 12.5177L16.1835 9.84134C16.4089 9.51669 16.53 9.13793 16.5383 8.74669C16.551 8.47198 16.459 8.2056 16.2838 8.00165C16.1794 7.89759 16.0541 7.81851 15.9206 7.76856C15.7829 7.71862 15.641 7.69781 15.4949 7.70613V7.59375H18.8255V7.71029C18.4081 7.83932 18.0158 8.03494 17.6653 8.293C17.3396 8.53441 17.0476 8.8216 16.8012 9.14209C16.4965 9.54583 16.2129 9.96621 15.9541 10.4032Z" fill="white"/>
</g>
<defs>
<clipPath id="clip0_516_44">
<rect width="24" height="24" fill="white"/>
</clipPath>
</defs>
</svg>
