<svg width="24" height="24" viewBox="0 0 24 24" fill="none" xmlns="http://www.w3.org/2000/svg">
<g clip-path="url(#clip0_516_142)">
<circle cx="12" cy="12" r="12" fill="#3858F5"/>
<path d="M4 15.132V9.132H5.812V10.032C5.908 9.76 6.088 9.532 6.352 9.348C6.616 9.156 6.912 9.06 7.24 9.06C7.448 9.06 7.644 9.084 7.828 9.132V10.968C7.548 10.872 7.28 10.824 7.024 10.824C6.64 10.824 6.34 10.96 6.124 11.232C5.916 11.496 5.812 11.848 5.812 12.288V15.132H4Z" fill="white"/>
<path d="M11.0358 15.264C10.3078 15.264 9.74784 15.02 9.35584 14.532C8.96384 14.044 8.76784 13.384 8.76784 12.552V9.132H10.5798V12.24C10.5798 13.16 10.8878 13.62 11.5038 13.62C12.2558 13.62 12.6318 13.096 12.6318 12.048V9.132H14.4438V15.132H12.6318V14.52C12.2878 15.016 11.7558 15.264 11.0358 15.264Z" fill="white"/>
<path d="M18.3537 15.264C17.5537 15.264 16.8937 15.068 16.3737 14.676C15.8617 14.276 15.5897 13.776 15.5577 13.176H17.4657C17.4817 13.408 17.5777 13.588 17.7537 13.716C17.9297 13.836 18.1497 13.896 18.4137 13.896C18.8617 13.896 19.0857 13.768 19.0857 13.512C19.0857 13.384 19.0337 13.288 18.9297 13.224C18.8337 13.152 18.6577 13.08 18.4017 13.008L17.1897 12.696C16.1817 12.432 15.6777 11.804 15.6777 10.812C15.6777 10.276 15.9017 9.84 16.3497 9.504C16.7977 9.168 17.4097 9 18.1857 9C18.8737 9 19.4457 9.172 19.9017 9.516C20.3657 9.852 20.6217 10.328 20.6697 10.944H18.8457C18.7737 10.576 18.5417 10.392 18.1497 10.392C17.7417 10.392 17.5377 10.52 17.5377 10.776C17.5377 11 17.7417 11.156 18.1497 11.244L19.2417 11.532C19.8417 11.692 20.2737 11.924 20.5377 12.228C20.8017 12.532 20.9337 12.928 20.9337 13.416C20.9337 13.968 20.6937 14.416 20.2137 14.76C19.7337 15.096 19.1137 15.264 18.3537 15.264Z" fill="white"/>
</g>
<defs>
<clipPath id="clip0_516_142">
<rect width="24" height="24" fill="white"/>
</clipPath>
</defs>
</svg>
